<?xml version="1.0" encoding="utf-8"?>
<!-- Generator: Adobe Illustrator 27.4.1, SVG Export Plug-In . SVG Version: 6.00 Build 0)  -->
<svg version="1.1" id="Layer_1" xmlns="http://www.w3.org/2000/svg" xmlns:xlink="http://www.w3.org/1999/xlink" x="0px" y="0px"
	 viewBox="0 0 590.92 85.04" style="enable-background:new 0 0 590.92 85.04;" xml:space="preserve">
<style type="text/css">
	.st0{fill:#5C5B54;}
	.st1{fill:#F49800;}
	.st2{fill:#1D71B8;}
	.st3{fill:#9A9999;}
	.st4{fill:#BABABA;}
</style>
<g>
	<path class="st0" d="M435.26,39.16c-4.9,0.75-12.1,1.17-16.47,1.23l-3.84,0.05V26.05h14.77v-5.23h-21.01V45.5l9.23-0.05
		c3.94,0,13.54-0.63,17.33-1.38V39.16z M417.14,51.42v15.41h27.56v-5.17h-21.32V51.42H417.14z M443.95,32.02V18.69h-6.18v35.3h6.18
		V37.24h6.77v-5.22H443.95z M392.56,31.8h-4.37V19.54h-5.86v39.82h5.86V37.45h4.37v23.14h6.08v-41.8h-6.08V31.8z M366.87,26.68v1.86
		c0,3.15-0.54,6.83-1.6,9.22c-1.28,2.99-3.89,6.19-7.52,9.22l3.78,3.68c2.56-1.87,4.1-3.52,5.65-5.44c1.49-1.86,2.66-3.52,2.98-4.26
		c0.33,0.75,1.44,2.35,2.93,4.11c1.49,1.81,2.99,3.36,5.33,4.9l3.14-3.68c-3.2-2.77-5.6-5.65-6.77-8.21
		c-1.22-2.56-1.81-6.29-1.81-9.65v-1.76h6.51V21.4h-19.36v5.28H366.87z M348.04,37.19V18.79h-6.13v41.26h6.13v-17.7h6.72v-5.17
		H348.04z M330.56,34.31c0,2.98-2.61,5.54-5.28,5.54c-2.67,0-5.28-2.56-5.28-5.54c0-3.04,2.61-5.6,5.28-5.6
		C327.94,28.71,330.56,31.27,330.56,34.31 M328.64,22.47v-5.23h-6.39v5.23h-10.03v5.01h5.12c-1.77,1.81-2.93,4.27-2.93,6.98
		c0,4.75,3.09,8.75,7.52,10.08v3.63c-1.7,0-3.3,0.06-4.8,0.06h-6.71v4.96l8.58-0.05c6.88-0.06,17.01-0.75,21.22-1.34v-4.85
		c-2.72,0.32-7.15,0.64-11.78,0.96V44.6c4.58-1.27,7.79-5.33,7.79-10.13c0-2.71-1.17-5.17-2.98-6.98h4.85v-5.01H328.64z
		 M276.39,25.14h14.98v8.37h-14.98V25.14z M270.15,38.47h27.62V20.18h-27.62V38.47z M269.94,51.32v15.41h28.84v-5.18h-22.39V51.32
		H269.94z M281.78,47.85v8.91h6.45v-8.91h17.91v-5.06H262.1v5.06H281.78z M229.95,27.7c0-3.3,2.72-5.86,6.08-5.86
		c3.36,0,6.08,2.56,6.08,5.86c0,3.25-2.77,5.92-6.08,5.92C232.73,33.62,229.95,30.95,229.95,27.7 M236.03,16.77
		c-6.61,0-11.95,4.96-11.95,10.93c0,6.02,5.33,10.93,11.95,10.93c6.61,0,11.94-4.9,11.94-10.93
		C247.97,21.73,242.64,16.77,236.03,16.77 M232.83,44.76v3.09h-10.56v4.8h20.85v2.4h-20.85v11.83h28.31v-4.85h-21.7v-2.46h20.79
		V47.85h-10.29v-3.09h19.19v-4.85h-44.95v4.85H232.83z M195.79,45.56c-4-2.51-6.98-5.44-8.64-8.59c-1.6-2.93-2.45-7.25-2.45-11.56
		v-4.64h-6.45v4.9c0,4-0.69,8-2.18,10.82c-1.65,3.15-5.22,6.93-9.49,9.87l3.89,3.94c2.02-1.28,4.48-3.31,6.61-5.44
		c1.92-1.86,3.58-3.84,4.48-5.44c1.01,1.81,2.77,3.83,4.75,5.7c1.92,1.81,4.1,3.47,5.91,4.48L195.79,45.56z M199.46,29.35h-9.01
		v5.28h9.01v25.6h6.23V18.74h-6.23V29.35z"/>
	<path class="st1" d="M68.67,18.53h-6.73v-6.7h6.73V18.53z M56.13,24.32h18.36V6.06H56.13V24.32z"/>
	<polygon class="st1" points="86.73,12.14 86.73,6.06 80.61,6.06 80.61,18.23 92.85,18.23 92.85,12.14 	"/>
	<polygon class="st1" points="62.25,48.67 62.25,42.58 56.13,42.58 56.13,54.76 68.37,54.76 68.37,48.67 	"/>
	<polygon class="st1" points="62.25,36.5 62.25,42.58 68.37,42.58 68.37,30.41 56.13,30.41 56.13,36.5 	"/>
	<polygon class="st1" points="111.22,30.41 105.1,30.41 105.1,24.32 98.97,24.32 98.97,42.58 105.1,42.58 105.1,36.5 111.22,36.5 	
		"/>
	<path class="st1" d="M83.67,29.8c2.03,0,3.68,1.63,3.68,3.65c0,2.02-1.64,3.66-3.68,3.66c-2.03,0-3.67-1.63-3.67-3.66
		C80,31.44,81.65,29.8,83.67,29.8 M86.73,42.07c3.57-1.25,6.12-4.64,6.12-8.62c0-5.04-4.11-9.13-9.18-9.13
		c-5.07,0-9.18,4.09-9.18,9.13c0,3.98,2.56,7.36,6.12,8.62v6.61h-6.12v6.09h18.36v-6.09h-6.12V42.07z"/>
	<polygon class="st1" points="43.89,60.85 43.89,54.76 37.76,54.76 37.76,66.94 50.01,66.94 50.01,60.85 	"/>
	<polygon class="st1" points="25.53,36.5 25.53,48.67 31.65,48.67 31.65,30.41 19.41,30.41 19.41,36.5 	"/>
	<polygon class="st1" points="50.01,36.5 50.01,30.41 37.76,30.41 37.76,48.67 43.89,48.67 43.89,54.76 50.01,54.76 50.01,42.58 
		43.89,42.58 43.89,36.5 	"/>
	<polygon class="st1" points="111.22,54.76 111.22,48.67 98.97,48.67 98.97,66.93 111.22,66.93 111.22,60.85 105.1,60.85 
		105.1,54.76 	"/>
	<polygon class="st1" points="117.34,73.02 117.34,66.93 111.21,66.93 111.21,79.11 123.45,79.11 123.45,73.02 	"/>
	<polygon class="st1" points="86.73,66.93 86.73,60.85 80.61,60.85 80.61,79.11 86.73,79.11 86.73,73.02 92.85,73.02 92.85,79.11 
		98.97,79.11 98.97,66.93 	"/>
	<polygon class="st1" points="129.57,54.76 123.45,54.76 123.45,48.67 117.34,48.67 117.34,66.93 123.45,66.93 123.45,60.85 
		129.57,60.85 	"/>
	<polygon class="st1" points="69.4,66.93 74.5,66.93 74.5,60.85 56.13,60.85 56.13,66.93 61.22,66.93 55.89,79.11 62.3,79.11 
		65.31,72.23 68.33,79.11 74.74,79.11 	"/>
	<path class="st1" d="M40.83,18.84c-2.03,0-3.67-1.63-3.67-3.65c0-2.02,1.64-3.65,3.67-3.65s3.67,1.63,3.67,3.65
		C44.5,17.2,42.86,18.84,40.83,18.84 M40.83,6.06c-5.07,0-9.18,4.09-9.18,9.13s4.11,9.13,9.18,9.13c5.07,0,9.18-4.09,9.18-9.13
		S45.9,6.06,40.83,6.06"/>
	<polygon class="st1" points="0.31,48.67 6.8,48.67 10.23,40.15 13.65,48.67 20.14,48.67 10.23,26.76 	"/>
	<rect x="148.45" y="6.06" class="st1" width="1.33" height="73.05"/>
	<g>
		<g>
			<g>
				<path class="st1" d="M571.23,8.99v4.63c0,1.12,0.97,1.23,2.69,1.12v3.56c-5.12,0.52-6.62-1.02-6.62-4.68V8.99h-2.09V5.23h2.09
					V2.16h3.92v3.07h2.69v3.77H571.23z"/>
				<path class="st1" d="M588.69,10.27v8.03h-3.92v-7.45c0-1.62-1.02-2.38-2.27-2.38c-1.44,0-2.43,0.84-2.43,2.69v7.14h-3.92V0h3.92
					v6.46c0.71-0.97,2.01-1.6,3.74-1.6C586.44,4.86,588.69,6.75,588.69,10.27z"/>
			</g>
			<g>
				<path class="st1" d="M514.75,7.68c9.67,0.24,17.67,4.9,19.54,11.04c0.27-0.89,0.41-1.82,0.41-2.76
					c0-7.63-9.28-13.81-20.73-13.81h-19.78v5.53h19.78C514.23,7.67,514.49,7.67,514.75,7.68z"/>
				<path class="st1" d="M547.52,46.35h-5.53h-5.53h-22.49c-4.54,0-8.6-1.07-11.41-2.77c-1.32-0.8-2.35-1.73-3.03-2.76
					c-0.57-0.87-0.89-1.79-0.89-2.76c0-4.58,6.87-8.29,15.33-8.29c0.26,0,0.53,0,0.79-0.01c6.33-0.17,11.63-2.43,13.65-5.52
					c-0.67-1.03-1.71-1.96-3.03-2.76c-2.81,1.69-6.88,2.76-11.41,2.76c-11.45,0-20.73,6.19-20.73,13.82
					c0,7.63,9.28,13.82,20.73,13.82h44.6v-5.53h-5.53v-1.38c0-4.53,1.07-8.61,2.76-11.41c-0.8-1.32-1.73-2.35-2.76-3.03
					c-3.09,2.02-5.34,7.32-5.52,13.65c-0.01,0.26-0.01,0.53-0.01,0.79L547.52,46.35z"/>
				<path class="st1" d="M575.15,44.98c0-11.45-6.19-20.73-13.82-20.73c-0.95,0-1.87,0.14-2.76,0.42
					c6.14,1.87,10.8,9.85,11.04,19.52c0.01,0.26,0.01,0.54,0.01,0.8l0,19.33c0,0.26,0,0.52-0.01,0.78
					c-0.24,9.67-4.9,17.67-11.04,19.54c0.89,0.27,1.82,0.41,2.76,0.41c7.63,0,13.82-9.28,13.82-20.73l0-12.43h13.54v-5.53h-13.54
					L575.15,44.98z"/>
				<path class="st1" d="M553.05,62.93h-5.52l0,1.38c0,0.26,0,0.53,0.01,0.79c0.17,6.33,2.43,11.63,5.52,13.65
					c1.03-0.67,1.96-1.71,2.76-3.03c-1.69-2.81-2.76-6.88-2.76-11.41L553.05,62.93z"/>
			</g>
			<g>
				<path class="st2" d="M513.97,35.3c-0.26,0-0.53,0-0.79,0.01c-6.33,0.17-11.63,2.43-13.65,5.52c0.67,1.03,1.71,1.96,3.03,2.76
					c2.81-1.69,6.88-2.76,11.41-2.76c11.45,0,20.73-6.19,20.73-13.82c0-7.63-9.28-13.81-20.73-13.81h-19.78v5.53h19.78
					c4.54,0,8.61,1.07,11.41,2.77c1.32,0.8,2.35,1.73,3.03,2.76c0.57,0.86,0.89,1.79,0.89,2.76
					C529.31,31.59,522.44,35.3,513.97,35.3z"/>
				<rect x="575.16" y="57.41" class="st2" width="13.54" height="5.53"/>
				<path class="st2" d="M536.47,64.31c0,11.45,6.19,20.73,13.82,20.73c7.63,0,13.82-9.28,13.82-20.73l0-19.33
					c0-11.45-6.19-20.73-13.81-20.73c-7.63,0-13.82,9.28-13.82,20.73l0,1.38h5.53l0-1.38c0-8.47,3.71-15.33,8.29-15.33
					c0.97,0,1.9,0.32,2.76,0.89c1.03,0.67,1.96,1.71,2.76,3.03c1.7,2.81,2.77,6.87,2.77,11.41l0,12.43h-44.6
					c-0.26,0-0.52,0-0.78-0.01c-9.68-0.23-17.67-4.9-19.54-11.04c-0.27,0.89-0.41,1.82-0.41,2.76c0,7.63,9.28,13.82,20.73,13.82
					h22.5L536.47,64.31z M558.58,64.31c0,8.47-3.71,15.33-8.29,15.33c-4.58,0-8.29-6.87-8.29-15.33h0v-1.38h16.58V64.31z"/>
			</g>
		</g>
	</g>
</g>
</svg>
